# xmcd CD database file
#
# Track frame offsets:
#	150
#	29960
#	47390
#	76858
#	84307
#	107213
#	136927
#	152052
#	179839
#	191040
#	211457
#
# Disc length: 3304 seconds
#
# Revision: 1
# Processed by: cddbd v1.5.1PL0 Copyright (c) Steve Scherf et al.
# Submitted via: CDex 1.50
#
DISCID=960ce60b
DTITLE=Jordi Bonell - Agua Madre
DYEAR=2003
DGENRE=Jazz
TTITLE0=Te llenaré de luz
TTITLE1=Rumba, rhytm and blues
TTITLE2=Sobran las palabras
TTITLE3=Preludio en Re
TTITLE4=Strangers in Paradise
TTITLE5=¡Niño... estate quieto!
TTITLE6=Cati
TTITLE7=A mí me andan siguiendo
TTITLE8=El guapo
TTITLE9=Caminando sobre el agua
TTITLE10=J.S.B.
EXTD=YEAR: 2003
EXTT0=
EXTT1=
EXTT2=
EXTT3=
EXTT4=
EXTT5=
EXTT6=
EXTT7=
EXTT8=
EXTT9=
EXTT10=
PLAYORDER=
